<?xml version="1.0" standalone="no"?>
<!DOCTYPE svg PUBLIC "-//W3C//DTD SVG 20010904//EN"
 "http://www.w3.org/TR/2001/REC-SVG-20010904/DTD/svg10.dtd">
<svg version="1.0" xmlns="http://www.w3.org/2000/svg"
 width="225.000000pt" height="225.000000pt" viewBox="0 0 225.000000 225.000000"
 preserveAspectRatio="xMidYMid meet">

<g transform="translate(0.000000,225.000000) scale(0.100000,-0.100000)"
fill="#000000" stroke="none">
<path d="M1000 2123 c-173 -30 -270 -58 -285 -84 -8 -13 -4 -12 47 11 75 33
217 62 338 70 l115 7 -95 0 c-52 0 -106 -2 -120 -4z"/>
<path d="M1243 2113 c9 -2 25 -2 35 0 9 3 1 5 -18 5 -19 0 -27 -2 -17 -5z"/>
<path d="M1387 2085 c212 -60 390 -184 519 -362 25 -35 50 -63 55 -63 18 0
-32 69 -98 137 -24 24 -43 47 -43 52 0 4 -18 20 -40 37 -22 16 -40 32 -40 36
0 3 -17 17 -37 29 -21 13 -40 26 -43 31 -13 18 -223 108 -276 117 -89 17 -87
12 3 -14z"/>
<path d="M967 2070 c-184 -33 -359 -122 -490 -249 -115 -110 -189 -226 -237
-371 -19 -54 -35 -87 -47 -91 -13 -6 -8 -8 17 -9 19 -1 75 -5 125 -9 49 -5 97
-6 106 -4 9 3 25 26 34 51 105 284 384 466 689 449 148 -9 246 -44 373 -133
98 -70 186 -185 233 -304 12 -30 27 -58 33 -62 7 -4 6 -12 -4 -24 -13 -16 -12
-17 4 -11 10 4 35 8 55 8 l37 2 -40 7 -40 6 35 7 c19 3 70 9 113 12 42 4 77 8
77 9 0 1 -7 27 -16 57 -47 160 -133 298 -257 415 -120 113 -250 185 -413 230
-69 18 -314 28 -387 14z m143 -59 c0 -5 -8 -11 -17 -13 -15 -3 -15 -4 1 -20
10 -10 13 -18 7 -18 -6 0 -11 -12 -11 -26 0 -14 -4 -23 -10 -19 -11 7 -14 88
-3 98 10 10 33 8 33 -2z m-58 -36 c0 -19 1 -41 2 -47 1 -7 -11 -14 -25 -16
-22 -3 -27 2 -33 29 -12 60 -9 69 24 69 27 0 30 -3 32 -35z m152 13 c3 -13 6
-36 6 -51 0 -27 -1 -27 -17 -11 -11 11 -18 13 -21 5 -7 -22 -23 -11 -16 12 15
49 24 67 33 67 5 0 11 -10 15 -22z m41 -44 c-3 -19 -10 -34 -15 -34 -9 0 -4
61 7 90 10 25 16 -17 8 -56z m83 34 c2 -9 -3 -22 -11 -29 -8 -8 -12 -21 -9
-31 2 -10 -1 -18 -7 -18 -6 0 -11 12 -11 28 l-1 27 -14 -30 c-11 -25 -14 -27
-14 -9 -1 12 2 36 5 53 6 27 11 32 33 29 14 -2 27 -10 29 -20z m-400 5 c-10
-2 -18 -11 -18 -19 0 -8 8 -14 18 -14 12 0 14 -2 4 -8 -17 -11 -4 -42 14 -35
8 3 14 0 14 -6 0 -6 -11 -11 -23 -11 -19 0 -26 8 -36 40 -14 47 -9 60 22 59
17 -1 18 -2 5 -6z m426 -26 c-6 -20 -5 -20 14 3 l21 25 1 -30 c1 -29 2 -29 12
-7 10 20 28 31 28 16 0 -11 -45 -84 -52 -84 -5 0 -8 10 -8 22 0 21 0 21 -14 2
-8 -10 -17 -16 -21 -12 -10 10 6 99 17 92 5 -3 6 -15 2 -27z m-488 4 c-3 -5 1
-25 9 -45 18 -41 18 -46 6 -46 -5 0 -15 16 -21 36 -7 19 -19 38 -27 41 -12 5
-12 7 -1 14 17 11 41 11 34 0z m621 -22 c9 -9 7 -21 -8 -50 -20 -40 -26 -43
-53 -33 -20 8 -20 12 -1 58 16 37 40 47 62 25z m-663 -32 c31 -41 32 -47 6
-40 -13 4 -20 0 -20 -10 0 -23 -31 -30 -51 -11 -21 19 -24 13 -9 -17 19 -35
-7 -20 -29 17 -26 44 -26 51 0 65 25 13 41 1 43 -32 0 -12 7 -24 13 -26 10 -4
11 7 7 41 -8 56 5 60 40 13z m729 -1 c15 -12 16 -18 7 -35 -6 -12 -15 -21 -20
-21 -6 0 -10 -9 -10 -20 0 -11 -4 -20 -10 -20 -5 0 -10 12 -10 28 -1 23 -2 24
-11 10 -22 -38 -28 -15 -7 27 23 48 32 52 61 31z m77 -53 c0 -3 -7 -3 -14 0
-10 4 -23 -7 -36 -29 -12 -18 -26 -34 -31 -34 -11 0 16 55 30 65 6 3 7 13 4
22 -5 13 -3 13 20 -2 15 -9 27 -20 27 -22z m-926 -13 l26 -39 -23 -16 c-21
-15 -23 -14 -49 17 -32 39 -34 47 -10 64 25 19 27 18 56 -26z m937 -19 c-14
-26 -1 -35 21 -14 13 11 18 12 18 3 0 -16 -56 -80 -64 -73 -3 4 1 14 10 24 11
12 12 19 4 24 -6 4 -17 -1 -25 -11 -7 -11 -16 -16 -20 -12 -4 4 5 23 20 42 29
38 53 49 36 17z m-1003 -48 c31 -42 12 -43 -22 -2 -26 31 -50 32 -39 2 5 -12
2 -15 -9 -10 -28 10 -29 -6 -2 -34 27 -29 48 -30 37 -4 -3 8 0 15 6 15 6 0 11
-5 11 -11 0 -14 -61 -89 -72 -89 -5 0 -24 12 -43 27 -28 22 -31 29 -22 45 7
10 16 18 21 18 4 0 3 -6 -3 -14 -17 -20 5 -32 26 -14 14 11 15 10 9 -9 -8 -26
9 -39 30 -22 13 11 10 17 -18 46 l-33 34 45 41 c31 29 45 37 49 27 2 -8 15
-29 29 -46z m1072 9 c0 -4 -16 -23 -35 -42 -42 -40 -46 -31 -7 15 27 33 42 43
42 27z m30 -26 c0 -3 -5 -17 -11 -32 -10 -28 -10 -28 11 -9 11 10 23 15 28 11
4 -5 -9 -21 -28 -37 -36 -31 -56 -37 -47 -16 22 54 22 54 -1 33 -12 -11 -25
-17 -28 -13 -3 3 9 19 28 36 30 28 48 38 48 27z m71 -89 c12 -22 11 -22 -9 -4
-22 20 -36 10 -25 -20 6 -16 5 -16 -10 -5 -21 18 -39 6 -31 -21 6 -21 5 -21
-11 1 -9 13 -15 24 -14 26 2 1 19 14 37 29 36 29 45 28 63 -6z m-1317 -28 c-3
-5 6 -9 20 -9 14 0 26 -4 26 -10 0 -11 -15 -12 -47 -4 -13 4 -20 11 -16 20 3
8 -1 14 -11 14 -24 0 -20 -12 16 -42 45 -37 31 -43 -20 -9 l-42 28 21 27 c20
26 22 26 40 10 10 -9 16 -21 13 -25z m1350 -21 c20 -28 20 -34 1 -42 -10 -3
-14 0 -12 12 1 9 -2 19 -8 22 -5 3 -11 -9 -13 -27 -4 -37 -29 -51 -48 -26 -18
24 -17 40 1 47 12 4 14 0 9 -21 -5 -19 -3 -24 7 -21 8 3 15 15 17 29 7 55 21
63 46 27z m-1346 -63 c2 -2 -1 -5 -5 -8 -13 -8 -95 42 -88 53 5 7 67 -23 93
-45z m1387 -15 c19 -38 19 -40 -6 -40 -18 0 -19 3 -9 15 6 8 9 19 5 25 -10 16
-25 2 -25 -24 0 -13 -7 -30 -16 -37 -14 -11 -18 -10 -30 6 -8 10 -14 24 -14
31 0 16 19 28 28 19 3 -3 1 -9 -5 -13 -7 -5 -9 -13 -4 -21 7 -11 11 -9 20 7 6
11 11 27 11 36 0 12 6 18 27 25 1 1 9 -12 18 -29z m-1440 4 c26 -17 31 -39 16
-63 -7 -11 -17 -9 -55 7 -44 20 -46 22 -34 46 13 30 38 33 73 10z"/>
<path d="M1010 1973 c0 -31 15 -61 25 -51 9 9 -5 78 -16 78 -5 0 -9 -12 -9
-27z"/>
<path d="M1181 1964 c0 -11 3 -14 6 -6 3 7 2 16 -1 19 -3 4 -6 -2 -5 -13z"/>
<path d="M1286 1975 c-3 -9 0 -15 9 -15 8 0 15 7 15 15 0 8 -4 15 -9 15 -5 0
-11 -7 -15 -15z"/>
<path d="M1442 1907 c-14 -39 -15 -47 -4 -47 11 0 42 66 35 74 -12 12 -19 6
-31 -27z"/>
<path d="M720 1885 c0 -9 5 -15 11 -13 6 2 11 8 11 13 0 5 -5 11 -11 13 -6 2
-11 -4 -11 -13z"/>
<path d="M800 1890 c0 -5 5 -10 11 -10 5 0 7 5 4 10 -3 6 -8 10 -11 10 -2 0
-4 -4 -4 -10z"/>
<path d="M1520 1884 c0 -9 5 -14 12 -12 18 6 21 28 4 28 -9 0 -16 -7 -16 -16z"/>
<path d="M650 1848 c1 -20 38 -60 50 -53 6 4 1 18 -12 36 -23 31 -38 37 -38
17z"/>
<path d="M386 1532 c-6 -10 59 -43 68 -35 11 12 6 20 -19 31 -31 14 -42 15
-49 4z"/>
<path d="M676 2031 c-3 -5 -26 -18 -50 -30 -25 -11 -50 -30 -56 -40 -6 -11
-16 -18 -23 -15 -7 2 -22 -4 -32 -16 -29 -32 0 -24 63 19 31 21 72 46 90 55
18 9 30 21 27 26 -8 12 -12 13 -19 1z"/>
<path d="M470 1885 c-14 -8 -21 -14 -16 -15 6 0 -5 -11 -23 -24 -18 -13 -29
-26 -24 -29 4 -3 28 15 53 39 48 47 49 52 10 29z"/>
<path d="M390 1801 c0 -7 -4 -10 -8 -7 -4 3 -16 -11 -26 -29 -11 -19 -24 -32
-30 -28 -6 3 -8 3 -4 -1 6 -8 2 -16 -32 -55 -37 -43 -155 -305 -144 -323 8
-12 21 -10 21 5 0 24 45 151 75 210 31 63 92 152 136 199 14 15 22 31 19 35
-4 3 -7 1 -7 -6z"/>
<path d="M1119 1799 c-1 -8 -2 -27 -3 -44 -1 -32 -8 -34 -71 -19 l-30 7 30
-24 c17 -13 32 -27 33 -31 2 -5 8 -6 13 -2 5 3 9 0 9 -6 0 -6 5 -8 10 -5 6 3
10 2 10 -4 0 -16 -18 -22 -23 -9 -2 8 -12 -1 -23 -20 -14 -23 -30 -35 -59 -43
-108 -29 -246 -141 -276 -224 -7 -19 -17 -35 -21 -35 -4 0 -8 -9 -8 -19 0 -10
-7 -22 -16 -25 -23 -9 -34 -7 -34 4 0 5 6 7 14 4 8 -3 17 -1 21 5 3 6 -1 11
-9 11 -13 0 -14 5 -5 27 13 35 8 29 -46 -47 l-43 -62 -18 55 c-12 38 -15 68
-10 100 12 81 26 63 27 -35 1 -86 2 -91 14 -63 15 34 52 77 80 93 11 6 17 13
14 17 -4 3 -26 -11 -50 -31 -51 -43 -54 -39 -47 63 4 63 4 64 -14 41 -20 -25
-38 -81 -38 -115 0 -16 -7 -23 -27 -26 l-28 -4 27 -2 c23 -1 28 -8 45 -63 11
-35 15 -65 10 -67 -12 -5 -28 21 -22 37 2 6 0 12 -5 12 -6 0 -10 17 -11 38
l-1 37 -15 -37 c-17 -40 -33 -47 -53 -23 -11 13 -8 15 16 15 20 1 24 3 14 8
-8 4 -100 5 -205 2 l-190 -6 153 -3 c83 -2 157 -5 162 -6 6 -1 15 -3 20 -4 6
0 10 -6 10 -12 0 -5 -4 -7 -10 -4 -5 3 -10 2 -10 -3 0 -5 14 -9 31 -10 18 0
37 -6 43 -12 8 -8 7 -10 -4 -6 -8 3 -35 -1 -60 -9 l-45 -14 60 6 c56 5 59 4
40 -11 -20 -16 -20 -16 4 -22 23 -7 23 -8 6 -21 -24 -17 -29 -44 -7 -36 11 5
13 3 7 -7 -5 -8 -3 -17 6 -24 20 -15 99 -123 99 -134 0 -5 6 -14 13 -20 11 -9
12 0 9 46 -2 31 1 68 7 82 10 25 10 24 10 -7 1 -18 6 -33 12 -33 5 0 8 4 4 9
-3 5 0 13 6 17 8 4 7 9 -2 15 -11 7 -10 12 5 26 15 14 18 15 14 3 -3 -9 0 -24
8 -34 7 -11 11 -22 9 -27 -8 -13 91 -154 134 -191 22 -19 66 -48 98 -64 55
-28 64 -29 188 -29 124 0 133 1 185 29 30 16 70 41 89 55 43 33 123 140 117
157 -2 6 4 14 15 17 13 3 19 14 19 31 0 14 5 26 11 26 6 0 8 9 4 21 -5 14 -3
19 4 15 6 -4 11 -17 11 -29 0 -12 2 -42 4 -67 2 -25 1 -65 -4 -90 -5 -25 -7
-46 -5 -48 2 -2 35 26 74 63 63 60 104 125 88 141 -3 3 -8 -9 -12 -26 -7 -30
-118 -161 -127 -150 -3 3 -2 48 2 100 5 83 7 90 14 57 5 -21 6 -58 3 -82 -5
-50 5 -50 30 -2 9 18 30 49 47 70 19 24 26 41 20 45 -8 5 -7 16 1 36 7 16 15
24 19 18 3 -6 2 -13 -4 -17 -14 -9 -12 -38 3 -32 6 2 11 11 9 19 -2 12 6 15
35 12 l36 -3 -43 26 c-38 23 -41 27 -24 34 28 11 36 10 28 -3 -4 -7 -3 -8 4
-4 17 10 15 14 -15 30 l-28 15 37 1 c20 0 39 -4 43 -10 3 -5 13 -6 22 -3 11 4
2 10 -28 20 -24 7 -50 11 -57 8 -7 -3 -10 0 -7 5 7 11 127 12 135 1 3 -4 21
-4 40 -1 30 5 25 7 -35 14 -38 4 -74 10 -79 13 -14 9 17 23 54 24 19 1 4 5
-35 9 -39 4 -74 4 -80 -1 -5 -5 2 -9 19 -9 24 0 27 -2 16 -15 -20 -24 -36 -17
-53 23 l-15 37 -2 -30 c-1 -16 -2 -33 -1 -38 0 -4 -3 -7 -7 -7 -4 0 -8 -10 -9
-21 -2 -25 -10 -35 -20 -26 -3 4 0 26 7 49 15 48 17 54 19 67 0 5 9 12 19 14
16 4 16 5 0 6 -12 1 -18 10 -19 29 -1 15 -5 6 -10 -24 -5 -28 -13 -64 -19 -79
l-10 -28 -39 54 c-21 30 -44 65 -51 78 -12 23 -11 23 10 8 25 -17 50 -50 66
-87 10 -21 12 -9 15 77 2 59 0 109 -6 116 -7 10 -9 -13 -7 -72 l4 -86 -49 48
c-27 26 -52 47 -56 47 -4 0 2 -22 13 -50 l20 -50 -21 0 c-11 0 -17 5 -14 10 3
6 2 10 -3 10 -6 0 -24 24 -40 53 -30 53 -95 123 -149 159 -15 10 -59 28 -96
39 -60 19 -69 24 -74 50 -4 23 -8 27 -19 18 -14 -12 -34 -4 -34 13 0 6 6 6 15
-2 13 -11 14 -10 9 5 -5 13 -4 16 4 11 7 -4 12 -2 12 3 0 6 -6 11 -12 11 -7 0
-5 5 5 11 9 5 21 8 25 5 4 -2 16 2 27 10 18 13 18 14 -6 14 -14 0 -30 -5 -36
-11 -21 -21 -43 -2 -41 36 1 33 -11 64 -13 34z m-29 -89 c8 -5 11 -10 5 -10
-5 0 -17 5 -25 10 -8 5 -10 10 -5 10 6 0 17 -5 25 -10z m90 -96 c0 -2 -26 -4
-57 -4 l-58 0 30 24 30 24 27 -20 c16 -11 28 -21 28 -24z m-70 -48 c0 -21 -6
-24 -49 -30 -27 -3 -75 -20 -106 -37 -45 -24 -60 -28 -71 -18 -8 6 -14 15 -14
19 0 11 99 62 149 76 73 20 91 18 91 -10z m141 4 c35 -11 74 -27 87 -36 21
-15 22 -17 7 -34 -15 -16 -18 -16 -60 6 -25 12 -67 25 -95 29 -44 6 -50 10
-50 31 0 30 24 31 111 4z m-138 -63 c8 -22 -5 -34 -53 -47 -25 -6 -60 -21 -79
-31 -30 -18 -36 -18 -49 -6 -8 9 -11 20 -8 26 10 16 79 50 123 60 54 13 60 13
66 -2z m150 -19 c52 -23 51 -22 37 -48 -10 -19 -11 -19 -48 0 -20 10 -54 22
-74 25 -32 6 -38 11 -38 32 0 22 3 23 38 17 20 -3 58 -15 85 -26z m228 -109
c21 -43 24 -59 8 -59 -5 0 -7 5 -4 10 3 6 -5 10 -19 10 -16 0 -30 8 -37 21 -6
12 -29 42 -52 66 -39 43 -40 44 -21 64 l19 21 43 -48 c24 -26 52 -64 63 -85z
m-621 86 c11 -13 8 -21 -17 -48 -17 -18 -41 -52 -53 -77 -12 -25 -24 -46 -25
-48 -1 -1 -12 1 -23 5 l-21 8 20 44 c21 47 84 131 98 131 5 0 14 -7 21 -15z
m368 -45 c35 -13 39 -22 18 -39 -11 -9 -22 -8 -47 3 -19 8 -42 17 -51 20 -10
3 -18 14 -18 25 0 16 4 18 33 11 17 -4 47 -13 65 -20z m156 -28 c20 -24 36
-48 36 -52 0 -5 3 -16 7 -26 5 -14 3 -16 -11 -11 -10 4 -15 3 -11 -3 3 -6 -1
-10 -10 -10 -10 0 -13 -5 -9 -12 4 -7 3 -8 -4 -4 -6 4 -9 13 -6 21 3 8 -6 26
-20 40 -14 14 -22 25 -19 25 14 0 -18 24 -34 26 -13 2 -10 -5 12 -25 17 -15
32 -34 34 -42 2 -8 6 -22 8 -31 3 -11 0 -18 -8 -19 -8 0 -22 -2 -32 -4 -9 -2
-14 1 -11 6 3 6 -7 26 -22 46 -18 24 -24 40 -18 48 5 7 20 28 34 48 28 40 34
39 84 -21z m-284 33 c0 -8 -12 -18 -27 -21 -16 -4 -44 -15 -65 -25 -33 -17
-37 -17 -42 -2 -7 18 7 29 59 50 43 16 75 16 75 -2z m-210 -66 c-17 -20 -35
-51 -41 -68 -12 -33 -45 -43 -55 -17 -7 17 25 82 62 125 25 30 27 31 45 15 18
-16 18 -18 -11 -55z m210 -2 c0 -30 -62 -56 -85 -37 -23 19 -18 30 18 45 48
21 67 19 67 -8z m86 8 c30 -12 34 -17 25 -34 -9 -17 -15 -18 -46 -8 -27 8 -35
16 -35 34 0 27 8 28 56 8z m-250 -46 c-14 -16 -27 -38 -31 -49 -3 -11 -15 -20
-26 -20 -23 0 -23 2 -3 43 26 52 55 79 71 66 10 -9 8 -17 -11 -40z m64 -33
c-1 -6 -9 -21 -20 -34 -14 -17 -25 -22 -40 -17 -26 8 -25 13 6 59 25 37 28 38
40 21 8 -10 14 -24 14 -29z m269 20 c15 -28 10 -41 -20 -49 -11 -3 -18 -3 -15
0 3 3 1 14 -4 24 -12 21 -3 49 14 49 7 0 18 -11 25 -24z m-145 -8 c4 -10 8
-10 11 -2 6 12 45 7 45 -5 0 -3 -12 -19 -26 -36 -25 -29 -25 -29 -8 -2 21 35
11 47 -14 17 -18 -23 -19 -60 -1 -60 4 0 -3 -12 -16 -26 -14 -15 -25 -35 -25
-45 0 -22 -16 -33 -32 -22 -7 4 -20 8 -28 9 -8 1 -22 2 -30 3 -17 1 -40 45
-40 74 0 13 5 17 15 14 13 -6 54 23 99 69 24 25 42 29 50 12z m456 8 c0 -3 -4
-8 -10 -11 -5 -3 -10 -1 -10 4 0 6 5 11 10 11 6 0 10 -2 10 -4z m-515 -16 c-3
-5 -12 -10 -18 -10 -7 0 -6 4 3 10 19 12 23 12 15 0z m445 0 c0 -5 -10 -10
-22 -10 -19 0 -20 2 -8 10 19 13 30 13 30 0z m-741 -33 c14 -12 50 -47 80 -77
30 -30 51 -49 46 -41 -5 9 -4 12 2 8 13 -8 4 -67 -11 -67 -19 0 -60 42 -95 97
-18 29 -47 66 -64 84 -29 29 -30 31 -8 24 13 -4 35 -17 50 -28z m-139 3 c-6
-11 -15 -20 -20 -20 -6 0 -5 9 2 20 7 11 16 20 21 20 4 0 3 -9 -3 -20z m45 10
c3 -5 2 -10 -4 -10 -5 0 -13 5 -16 10 -3 6 -2 10 4 10 5 0 13 -4 16 -10z m552
-41 c-7 -3 -27 -9 -45 -12 l-33 -7 27 36 28 36 17 -24 c13 -16 15 -25 6 -29z
m212 10 c-12 -7 -12 -9 0 -9 10 0 11 -3 2 -13 -8 -10 -7 -17 1 -25 7 -7 8 -12
4 -12 -5 0 -17 10 -27 22 -24 27 -25 65 -1 70 22 5 39 -21 21 -33z m131 31 c0
-5 -5 -10 -11 -10 -5 0 -7 5 -4 10 3 6 8 10 11 10 2 0 4 -4 4 -10z m51 -11 c8
-16 8 -20 -1 -17 -6 2 -11 7 -10 12 1 5 -4 13 -12 17 -9 6 -9 9 -1 9 7 0 17
-10 24 -21z m-591 1 c0 -5 -5 -10 -11 -10 -5 0 -7 5 -4 10 3 6 8 10 11 10 2 0
4 -4 4 -10z m490 -32 c0 -4 -5 -8 -12 -8 -6 0 -8 3 -5 7 4 3 -1 16 -10 27 -18
21 -18 21 5 2 12 -11 22 -23 22 -28z m-980 -28 c29 -72 32 -117 7 -116 -10 1
-22 8 -27 16 -17 27 -10 33 10 9 l21 -24 -15 32 c-15 30 -35 153 -23 143 3 -3
15 -30 27 -60z m842 28 c-3 -26 -8 -33 -26 -33 -43 0 -24 63 19 65 6 0 9 -14
7 -32z m335 -24 c-3 -30 -15 -71 -27 -91 -14 -24 -17 -39 -11 -47 7 -8 0 -23
-22 -50 -30 -35 -32 -36 -32 -13 0 14 5 23 11 20 15 -6 26 23 29 74 2 41 42
163 53 163 2 0 2 -25 -1 -56z m-1045 39 c-6 -2 -9 -9 -6 -15 4 -6 8 -28 9 -49
3 -34 0 -40 -22 -45 -37 -10 -41 5 -8 32 17 14 22 22 12 18 -15 -5 -17 -2 -13
20 6 33 14 46 29 45 9 0 8 -2 -1 -6z m905 1 c-3 -3 -12 -4 -19 -1 -8 3 -5 6 6
6 11 1 17 -2 13 -5z m-941 -38 c-1 -19 -4 -32 -7 -30 -4 2 -15 -25 -25 -60
-22 -78 -34 -78 -22 1 7 45 40 123 52 123 1 0 2 -15 2 -34z m984 -3 c24 -40
43 -140 28 -149 -4 -3 -8 2 -8 11 0 25 -44 145 -53 145 -4 0 -3 -9 3 -20 6
-11 8 -20 5 -20 -3 0 -1 -10 6 -21 6 -13 7 -19 1 -15 -6 3 -17 -1 -25 -9 -9
-8 -20 -15 -26 -15 -5 0 -13 -16 -17 -35 -7 -40 -21 -46 -26 -12 -2 17 -18 28
-66 47 -46 17 -59 26 -46 30 16 6 15 7 -5 13 -13 3 -20 10 -16 16 11 19 35 12
45 -14 11 -30 14 -30 50 -9 25 15 30 15 58 2 l30 -15 -3 36 c-3 45 4 64 21 57
8 -3 14 -1 14 4 0 18 8 11 30 -27z m-1010 23 c0 -3 -4 -8 -10 -11 -5 -3 -10
-1 -10 4 0 6 5 11 10 11 6 0 10 -2 10 -4z m120 -22 c0 -8 5 -14 10 -14 6 0 10
-15 10 -34 0 -19 4 -46 10 -61 8 -22 7 -27 -13 -34 -12 -5 -26 -5 -30 -1 -5 4
-11 44 -14 89 -5 73 -4 81 11 75 9 -3 16 -12 16 -20z m140 16 c0 -5 -4 -10
-10 -10 -5 0 -10 5 -10 10 0 6 5 10 10 10 6 0 10 -4 10 -10z m420 -26 c0 -21
-4 -33 -10 -29 -5 3 -10 19 -10 36 0 16 5 29 10 29 6 0 10 -16 10 -36z m350
26 c0 -5 -2 -10 -4 -10 -3 0 -8 5 -11 10 -3 6 -1 10 4 10 6 0 11 -4 11 -10z
m-333 -22 c-3 -8 -6 -5 -6 6 -1 11 2 17 5 13 3 -3 4 -12 1 -19z m-357 -24 c6
-28 5 -30 -17 -26 -18 3 -23 11 -23 34 0 41 32 34 40 -8z m580 5 c0 -5 -6 -9
-13 -9 -7 0 -13 9 -13 19 0 15 3 17 13 9 7 -6 13 -14 13 -19z m-947 -9 c-3
-11 -9 -17 -14 -14 -14 8 -10 34 5 34 9 0 12 -7 9 -20z m667 4 c0 -8 -5 -12
-10 -9 -6 4 -8 11 -5 16 9 14 15 11 15 -7z m420 9 c0 -5 -4 -14 -9 -21 -6 -10
-10 -9 -14 7 -3 14 0 21 9 21 8 0 14 -3 14 -7z m-470 -28 c-5 -6 -5 -16 0 -25
13 -20 12 -30 0 -30 -6 0 -15 10 -20 23 -8 21 -9 21 -9 -5 -1 -15 -6 -30 -13
-34 -7 -5 -9 -2 -5 8 3 9 1 20 -3 24 -5 5 -7 19 -4 30 4 15 14 21 35 21 20 0
26 -4 19 -12z m-695 -15 c-3 -5 -12 -10 -18 -10 -7 0 -6 4 3 10 19 12 23 12
15 0z m1255 -16 c0 -2 -9 0 -20 6 -11 6 -20 13 -20 16 0 2 9 0 20 -6 11 -6 20
-13 20 -16z m-519 1 c-1 -15 -24 -12 -29 3 -3 9 2 13 12 10 10 -1 17 -7 17
-13z m-561 -5 c0 -5 -7 -10 -16 -10 -8 0 -12 5 -9 10 3 6 10 10 16 10 5 0 9
-4 9 -10z m147 -17 c4 -12 -25 -26 -38 -17 -5 3 -9 11 -9 18 0 15 42 14 47 -1z
m212 -9 c-9 -11 -15 -11 -25 -3 -21 18 -17 27 11 21 20 -3 23 -7 14 -18z m250
10 c14 9 14 3 0 -28 -18 -39 -59 -46 -59 -10 0 19 33 52 41 41 4 -5 12 -6 18
-3z m-665 -18 c-6 -16 -24 -23 -24 -8 0 10 22 33 27 28 2 -2 1 -11 -3 -20z
m354 0 c3 -15 -1 -17 -20 -11 -32 10 -35 15 -18 25 20 13 34 7 38 -14z m173
-16 c5 0 9 -7 9 -15 0 -8 -7 -15 -15 -15 -11 0 -15 10 -14 38 1 23 3 28 6 15
2 -13 9 -23 14 -23z m199 30 c0 -5 -2 -10 -4 -10 -3 0 -8 5 -11 10 -3 6 -1 10
4 10 6 0 11 -4 11 -10z m273 -10 c3 -11 1 -20 -4 -20 -5 0 -9 2 -9 4 0 2 -3
11 -6 20 -3 9 -2 16 4 16 5 0 12 -9 15 -20z m-522 -10 c7 -17 1 -40 -11 -40
-5 0 -16 7 -25 16 -12 12 -13 19 -4 30 14 17 32 14 40 -6z m239 -34 c0 -17 -5
-37 -11 -43 -9 -9 -8 -11 4 -9 9 1 20 5 23 9 4 4 14 1 23 -6 14 -10 14 -10 3
5 -12 14 -11 21 3 40 l17 23 -7 -25 c-6 -24 -5 -24 9 -6 9 11 19 16 23 11 5
-4 2 -10 -4 -12 -7 -3 -13 -11 -13 -20 0 -16 -51 -92 -62 -93 -4 0 -12 10 -19
23 -6 12 -21 29 -32 39 -16 12 -18 19 -10 30 7 7 11 23 9 33 -3 20 23 47 36
39 5 -3 8 -20 8 -38z m-748 -26 c3 0 9 10 11 23 2 12 5 0 6 -27 0 -28 -3 -46
-7 -40 -32 38 -60 83 -55 88 4 4 14 -5 22 -19 9 -14 19 -25 23 -25z m263 20
c8 -16 28 -45 44 -63 25 -28 27 -35 16 -50 -11 -16 -15 -14 -48 22 -51 56 -73
101 -55 112 21 14 26 11 43 -21z m177 6 c17 -12 18 -16 7 -16 -33 0 -124 21
-133 30 -17 17 101 3 126 -14z m448 -2 c0 -8 -4 -12 -10 -9 -6 4 -7 -1 -3 -11
4 -11 8 -13 11 -6 8 24 21 11 19 -18 -1 -16 -5 -30 -9 -30 -9 0 -53 -73 -50
-83 1 -5 -2 -6 -7 -3 -5 3 -14 -1 -21 -9 -11 -13 -15 -12 -31 9 -18 23 -17 62
1 51 8 -5 25 24 21 38 -1 5 3 6 8 3 5 -3 11 1 15 9 3 9 12 12 23 9 13 -4 14
-3 5 3 -10 8 -11 15 -1 36 13 30 29 36 29 11z m-686 -39 c11 -19 36 -53 56
-75 37 -40 37 -41 20 -63 l-18 -22 -35 38 c-42 46 -91 133 -82 147 13 21 41 9
59 -25z m163 13 c9 -7 10 -16 2 -29 -14 -27 -23 -24 -54 17 l-28 36 34 -7 c19
-4 40 -12 46 -17z m246 5 c-7 -2 -21 -2 -30 0 -10 3 -4 5 12 5 17 0 24 -2 18
-5z m77 0 c-8 -3 -23 -12 -32 -21 -10 -8 -18 -12 -18 -7 0 12 33 34 50 34 13
-1 13 -1 0 -6z m-194 -13 c8 0 14 -7 14 -15 0 -17 -27 -19 -64 -5 -38 14 -33
34 5 26 17 -3 38 -6 45 -6z m134 -4 c0 -2 -7 -6 -15 -10 -8 -3 -15 -1 -15 4 0
6 7 10 15 10 8 0 15 -2 15 -4z m-60 -21 c0 -2 -7 -5 -15 -9 -9 -3 -15 0 -15 9
0 9 6 12 15 9 8 -4 15 -7 15 -9z m114 -11 c4 -9 5 -18 4 -19 -14 -12 -90 -43
-115 -48 -29 -6 -33 -4 -33 16 0 18 11 26 58 44 71 26 78 27 86 7z m-221 -13
c40 -11 47 -17 47 -38 0 -23 -3 -24 -32 -18 -18 4 -50 16 -71 27 -32 16 -36
22 -26 34 7 8 17 13 23 11 6 -1 32 -9 59 -16z m265 -45 c4 -20 -80 -61 -145
-72 -39 -6 -43 -5 -43 15 0 16 6 21 28 21 16 0 53 13 83 29 60 31 72 32 77 7z
m-330 -6 c17 -11 50 -23 72 -26 31 -5 40 -11 40 -27 0 -17 -5 -19 -39 -13 -86
13 -149 54 -124 79 10 10 15 9 51 -13z m376 -38 c15 -18 15 -20 -2 -35 -31
-28 -134 -70 -184 -75 l-48 -5 0 32 c0 29 2 31 38 31 25 0 63 12 103 34 79 41
73 40 93 18z m-398 -24 c27 -12 67 -24 88 -27 33 -5 41 -11 47 -33 7 -27 6
-28 -31 -28 -45 0 -138 32 -172 59 -19 16 -20 21 -9 35 17 20 19 20 77 -6z"/>
<path d="M1140 1740 c0 -5 5 -10 10 -10 6 0 10 5 10 10 0 6 -4 10 -10 10 -5 0
-10 -4 -10 -10z"/>
<path d="M886 1681 c-21 -11 -43 -18 -50 -15 -23 9 -67 -15 -84 -46 -9 -16
-24 -30 -33 -30 -20 0 -66 -35 -79 -61 -6 -10 -14 -48 -19 -83 l-7 -65 43 31
c52 38 57 48 8 18 -44 -27 -45 -18 -4 18 62 53 109 70 68 26 l-24 -27 27 17
c15 10 35 35 45 57 10 21 27 42 37 45 11 4 32 20 47 37 15 16 55 42 89 57 44
19 57 29 45 34 -30 11 -70 6 -109 -13z m49 -16 c-27 -13 -61 -26 -75 -30 -23
-7 -24 -7 -10 10 20 24 68 44 105 44 28 -1 26 -2 -20 -24z m-108 -23 c-23 -25
-21 -31 6 -26 12 2 6 -2 -13 -10 -40 -15 -48 -13 -30 9 7 9 11 18 8 21 -3 3
-15 -10 -27 -28 -11 -18 -21 -26 -21 -18 1 23 25 50 50 55 13 2 25 7 28 10 14
14 13 3 -1 -13z m13 -48 c0 -5 -64 -34 -75 -34 -17 0 10 21 38 29 18 5 33 10
35 10 1 1 2 -1 2 -5z m-114 -39 c-5 -19 -3 -23 9 -19 8 3 13 10 10 14 -3 5 4
6 15 3 12 -3 17 -10 13 -17 -4 -6 -8 -15 -8 -21 -1 -5 -7 -9 -14 -7 -7 1 -28
-6 -47 -17 -19 -11 -34 -16 -34 -11 0 24 44 100 58 100 2 0 1 -11 -2 -25z
m-52 -32 c-13 -27 -24 -53 -24 -60 0 -6 -5 -15 -11 -18 -17 -11 1 66 23 98 31
43 37 32 12 -20z"/>
<path d="M1248 1694 c-4 -4 15 -18 43 -30 66 -31 77 -30 19 1 -42 22 -43 24
-17 25 35 0 88 -22 106 -44 13 -16 12 -17 -14 -10 l-28 7 33 -36 c18 -20 41
-39 50 -42 10 -3 23 -19 30 -35 11 -27 34 -50 129 -131 l31 -27 0 48 c0 82
-35 151 -84 166 -12 3 -34 21 -51 39 -16 18 -41 37 -54 40 -23 7 -23 7 5 -28
15 -20 30 -34 33 -32 2 3 -4 14 -14 25 -10 11 -13 20 -7 20 16 0 55 -59 48
-75 -2 -7 0 -16 7 -19 7 -3 -1 -3 -18 1 -16 3 -41 12 -55 20 l-25 14 27 -5
c14 -3 34 -9 43 -13 12 -4 16 -2 13 7 -2 7 -19 14 -37 16 -18 2 -40 9 -49 15
-14 9 -13 10 6 5 34 -7 23 14 -26 48 -40 28 -128 47 -144 30z m305 -146 c8
-18 18 -44 22 -57 7 -23 5 -22 -41 9 -61 41 -58 39 -53 45 3 2 17 -2 32 -10
31 -16 31 -16 17 19 -14 38 5 32 23 -6z m56 -59 c20 -90 18 -94 -37 -54 -26
18 -57 44 -67 56 l-20 22 35 -18 c19 -10 47 -31 62 -48 34 -36 35 -28 3 53
-30 77 -30 78 -6 56 11 -10 25 -40 30 -67z"/>
<path d="M1980 1610 c22 -42 36 -55 20 -17 -6 12 -13 30 -16 40 -4 9 -10 17
-15 17 -5 0 0 -18 11 -40z"/>
<path d="M2045 1463 c31 -89 33 -99 17 -105 -13 -5 -10 -7 10 -7 22 -1 25 2
21 22 -3 12 -11 36 -19 54 -8 17 -14 36 -14 42 0 13 -38 91 -45 91 -2 0 11
-44 30 -97z"/>
<path d="M1671 1445 c1 -19 18 -51 18 -35 0 8 -4 22 -9 30 -5 8 -9 11 -9 5z"/>
<path d="M421 1321 c-9 -6 -6 -10 10 -14 28 -8 34 -3 16 11 -7 6 -19 7 -26 3z"/>
<path d="M378 1313 c7 -3 16 -2 19 1 4 3 -2 6 -13 5 -11 0 -14 -3 -6 -6z"/>
<path d="M1958 1283 c34 -2 88 -2 120 0 31 2 3 3 -63 3 -66 0 -92 -1 -57 -3z"/>
<path d="M366 1243 c-4 -4 -24 -7 -44 -6 -37 2 -37 2 7 -8 31 -8 46 -8 51 0 3
7 14 9 23 5 10 -3 17 -1 17 5 0 12 -42 15 -54 4z"/>
<path d="M125 1156 c4 -45 11 -101 17 -126 5 -25 12 -56 14 -70 7 -37 46 -143
57 -155 7 -7 7 -3 3 10 -41 111 -63 212 -73 333 l-5 72 68 1 c78 1 69 6 -24
12 l-63 3 6 -80z"/>
<path d="M2045 1230 l-70 -6 64 -2 64 -2 -6 -117 c-5 -106 -31 -241 -56 -291
-5 -9 -26 -53 -47 -97 -21 -44 -41 -82 -44 -85 -3 -3 -27 -32 -52 -65 -25 -33
-64 -78 -87 -99 -22 -22 -37 -44 -34 -49 3 -6 1 -7 -5 -3 -6 4 -37 -13 -69
-37 -63 -48 -209 -126 -265 -142 -5 -2 -9 -3 -10 -5 -2 -1 -12 -3 -23 -5 -11
-2 -58 -11 -105 -20 -122 -25 -302 -16 -425 20 -262 78 -493 267 -615 503 -32
63 -47 80 -35 41 10 -29 76 -143 87 -147 4 -2 8 -10 8 -18 0 -8 5 -14 10 -14
6 0 10 -6 10 -12 1 -18 93 -118 108 -118 7 0 11 -4 8 -9 -3 -5 6 -17 20 -27
14 -11 41 -30 59 -44 18 -14 43 -32 55 -40 12 -8 33 -23 45 -32 13 -10 26 -18
29 -18 4 0 28 -10 54 -21 93 -42 108 -47 197 -69 71 -18 119 -23 225 -23 74
-1 151 4 170 10 19 6 62 17 95 24 137 29 326 142 442 265 46 47 81 90 78 94
-3 5 1 12 8 17 19 11 95 146 110 195 7 21 15 38 19 38 5 0 8 8 8 18 0 10 7 39
15 63 22 63 42 198 38 255 -1 27 -3 57 -3 67 -1 9 -2 16 -3 15 -1 -1 -33 -4
-72 -8z"/>
<path d="M2046 1195 c-11 -8 -36 -15 -55 -16 -28 0 -32 -2 -16 -8 19 -8 19 -8
-2 -19 -12 -7 -35 -12 -52 -12 -19 0 -30 -5 -28 -12 1 -8 -14 -15 -38 -19 -22
-3 -35 -7 -30 -8 6 -1 6 -4 -1 -9 -6 -4 -18 -39 -27 -79 -46 -204 -179 -370
-371 -463 -114 -55 -204 -73 -336 -67 -256 13 -472 154 -585 382 -35 72 -70
198 -60 215 4 6 -1 10 -10 10 -9 0 -13 5 -10 10 4 6 -8 10 -29 10 -19 0 -37 4
-41 9 -7 13 27 23 51 15 17 -5 17 -4 2 6 -10 6 -29 8 -45 3 -33 -8 -60 -5 -88
10 -18 10 -15 12 25 22 44 11 43 11 -34 10 l-79 0 7 -85 c17 -235 101 -416
271 -585 117 -116 215 -179 351 -224 131 -44 209 -55 353 -48 242 10 434 93
610 261 166 160 259 364 279 609 4 53 8 97 7 97 0 0 -9 -7 -19 -15z m-112
-255 c18 0 22 -15 6 -25 -5 -3 -10 -18 -10 -32 0 -21 -2 -23 -15 -13 -8 6 -23
9 -35 5 -16 -5 -20 -2 -20 14 0 11 -4 23 -10 26 -17 10 -11 25 9 25 10 0 22 8
26 18 6 16 7 16 19 0 7 -10 21 -18 30 -18z m-1522 -40 c9 0 9 -3 0 -12 -7 -7
-12 -23 -12 -35 0 -20 -3 -22 -18 -14 -11 6 -24 6 -35 0 -14 -8 -17 -6 -17 14
0 12 -5 28 -12 35 -9 9 -7 13 8 18 10 4 23 13 27 20 6 10 12 9 27 -6 11 -11
25 -20 32 -20z m294 -401 c-22 -53 -14 -61 16 -15 13 20 26 36 31 36 12 0 9
-8 -19 -50 -23 -34 -28 -37 -45 -27 -10 6 -18 19 -16 27 1 11 -5 14 -23 12
-29 -4 -29 -4 24 37 22 17 41 29 44 27 2 -3 -3 -24 -12 -47z m878 18 c34 -45
33 -51 -6 -31 -33 17 -33 16 -15 -3 19 -21 22 -33 8 -33 -4 0 -20 18 -35 40
-19 30 -22 40 -12 40 8 0 18 -4 21 -10 3 -5 11 -10 17 -10 6 0 3 9 -7 20 -10
11 -13 20 -7 20 6 0 22 -15 36 -33z m-54 -42 c18 -29 20 -38 10 -50 -20 -24
-35 -18 -59 26 -19 34 -21 43 -10 50 24 15 37 10 59 -26z m-731 16 c16 -11 6
-51 -14 -51 -8 0 -16 -12 -18 -27 -3 -25 -4 -24 -6 7 -1 29 -3 32 -12 18 -5
-10 -14 -18 -20 -18 -5 0 1 18 13 40 24 41 33 46 57 31z m671 -51 c11 -21 20
-42 20 -45 0 -15 -22 9 -39 43 -15 29 -21 33 -26 20 -4 -9 1 -30 9 -47 18 -34
19 -41 8 -41 -5 0 -16 18 -25 41 -9 23 -21 38 -27 34 -5 -3 -10 -4 -10 -1 0 6
51 35 62 36 4 0 17 -18 28 -40z m-611 17 c11 -14 5 -27 -11 -27 -5 0 -7 4 -3
9 3 5 1 12 -3 15 -10 6 -43 -59 -35 -68 3 -3 12 -1 20 5 10 9 13 8 13 -5 0
-21 -39 -21 -47 0 -8 21 23 84 41 84 7 0 19 -6 25 -13z m45 -13 c20 -8 21 -40
2 -51 -8 -5 -11 -15 -7 -26 6 -15 11 -11 29 22 13 23 25 41 28 41 2 0 4 -26 4
-57 0 -53 -1 -56 -16 -37 -10 12 -17 15 -20 8 -9 -23 -44 -3 -44 25 l-1 26
-13 -24 c-21 -39 -25 -10 -4 37 20 46 19 45 42 36z m490 -44 l26 -40 -22 3
c-13 1 -22 -3 -21 -9 4 -23 -37 -23 -53 -1 l-16 22 5 -22 c3 -13 1 -23 -4 -23
-11 0 -32 78 -24 90 10 17 45 11 47 -7 0 -10 2 -22 3 -28 2 -5 3 -16 4 -22 0
-7 5 -13 11 -13 6 0 7 18 3 45 -7 56 6 58 41 5z m-329 -9 c-4 -9 -9 -31 -12
-48 -8 -50 -21 -39 -15 12 4 41 3 45 -17 45 -23 0 -29 -25 -8 -33 7 -3 5 -6
-5 -6 -11 -1 -18 -9 -18 -21 0 -11 -5 -20 -11 -20 -6 0 -8 8 -5 18 2 9 7 31
11 47 5 29 8 30 46 27 33 -3 39 -7 34 -21z m205 19 c0 -5 -4 -10 -10 -10 -18
0 -11 -30 8 -31 15 -1 16 -2 0 -6 -21 -5 -12 -33 11 -33 14 -1 13 -2 -2 -11
-24 -14 -33 -4 -41 48 -4 29 -2 43 7 46 20 9 27 8 27 -3z m-46 -25 c8 -30 1
-45 -19 -45 -9 0 -12 -6 -9 -15 4 -8 2 -15 -4 -15 -10 0 -23 78 -15 93 10 18
41 6 47 -18z m-64 -35 c0 -47 -2 -50 -25 -50 -23 0 -25 3 -25 50 0 47 2 50 25
50 23 0 25 -3 25 -50z"/>
<path d="M680 505 c-7 -9 -8 -15 -2 -15 5 0 12 7 16 15 3 8 4 15 2 15 -2 0 -9
-7 -16 -15z"/>
<path d="M1487 494 c-8 -9 21 -64 33 -64 14 0 13 5 -8 40 -10 16 -22 27 -25
24z"/>
<path d="M770 470 c0 -5 5 -10 10 -10 6 0 10 5 10 10 0 6 -4 10 -10 10 -5 0
-10 -4 -10 -10z"/>
<path d="M887 423 c-10 -9 -9 -23 2 -23 5 0 11 7 15 15 5 15 -5 20 -17 8z"/>
<path d="M936 375 c-3 -8 -1 -15 4 -15 6 0 10 7 10 15 0 8 -2 15 -4 15 -2 0
-6 -7 -10 -15z"/>
<path d="M1300 400 c0 -5 5 -10 10 -10 6 0 10 5 10 10 0 6 -4 10 -10 10 -5 0
-10 -4 -10 -10z"/>
<path d="M1195 387 c-4 -10 -5 -21 -1 -24 10 -10 18 4 13 24 -4 17 -4 17 -12
0z"/>
<path d="M1130 349 c0 -24 4 -38 10 -34 6 3 10 22 10 41 0 19 -4 34 -10 34 -5
0 -10 -18 -10 -41z"/>
<path d="M360 1190 c12 -8 12 -10 1 -10 -8 0 -12 -2 -9 -5 3 -3 13 -3 22 1 19
7 11 24 -12 24 -15 0 -15 -2 -2 -10z"/>
<path d="M1850 1190 c-18 -12 -2 -12 25 0 13 6 15 9 5 9 -8 0 -22 -4 -30 -9z"/>
<path d="M1890 1180 c-11 -7 -5 -8 20 -4 43 8 51 14 19 14 -13 0 -31 -5 -39
-10z"/>
<path d="M430 1166 l-25 -14 27 1 c14 1 24 6 20 11 -3 5 2 6 12 3 10 -4 15 -3
11 3 -8 13 -15 12 -45 -4z"/>
<path d="M1795 1160 c-4 -6 1 -7 11 -3 11 4 15 3 11 -4 -5 -7 1 -9 15 -5 21 5
21 6 2 13 -27 11 -32 10 -39 -1z"/>
<path d="M654 953 c1 -35 0 -63 -3 -63 -3 0 -26 19 -51 43 -25 23 -20 16 13
-16 32 -32 60 -57 62 -55 1 2 -3 37 -11 78 l-13 75 3 -62z"/>
<path d="M682 942 c5 -31 13 -72 18 -89 l8 -33 -46 26 c-26 15 -64 44 -84 65
-21 21 -38 34 -38 29 0 -26 26 -70 65 -110 24 -25 44 -48 45 -52 0 -5 0 -12 0
-18 0 -12 79 -70 94 -70 6 1 -1 8 -16 16 -16 8 -28 17 -28 20 0 6 111 -3 170
-13 33 -6 34 -7 10 -14 -20 -5 -21 -7 -5 -7 11 0 29 3 40 8 17 7 17 9 3 9 -10
1 -18 6 -18 12 0 7 7 8 18 4 36 -15 56 -15 24 -1 -18 9 -64 43 -101 76 -37 33
-71 60 -74 60 -8 0 40 -88 61 -112 14 -16 13 -18 -4 -18 -19 0 -27 11 -70 110
-16 34 -23 44 -19 25 3 -16 14 -47 24 -67 10 -21 14 -38 9 -38 -6 0 -12 9 -15
20 -3 11 -9 20 -13 20 -13 0 -40 78 -40 113 l1 32 14 -25 c17 -30 20 -21 4 14
-7 14 -16 23 -20 20 -5 -3 -6 1 -3 9 3 8 -1 19 -9 25 -11 10 -12 2 -5 -46z
m49 -158 c11 -13 9 -14 -17 -8 -58 14 -93 40 -144 108 -16 21 142 -77 161
-100z m153 -52 c-19 -5 -60 32 -81 72 -13 25 -8 23 41 -20 38 -34 51 -50 40
-52z m-159 28 l60 -20 -55 5 c-40 3 -51 2 -40 -6 13 -9 13 -10 0 -6 -8 2 -15
9 -15 16 0 6 -7 16 -15 21 -24 15 0 11 65 -10z"/>
<path d="M1540 948 c-16 -29 -30 -59 -30 -66 0 -7 -15 -44 -32 -83 -24 -50
-38 -69 -52 -69 -17 0 -18 2 -4 18 24 28 70 112 61 112 -5 0 -38 -27 -75 -60
-37 -34 -84 -67 -104 -74 l-38 -13 67 -16 c73 -19 144 -22 166 -8 10 6 0 8
-27 4 -56 -7 -171 16 -147 30 12 6 20 6 24 -2 7 -10 103 -3 191 14 l25 6 -25
-21 c-14 -11 -20 -20 -13 -20 17 0 86 67 79 78 -3 5 13 26 34 47 22 22 40 42
40 46 0 3 -19 -13 -43 -36 -28 -29 -57 -47 -87 -55 -25 -6 -53 -14 -63 -17
-17 -4 -18 -3 -4 19 9 12 23 48 31 78 24 80 39 97 33 36 -3 -28 -14 -61 -27
-78 -12 -16 -20 -32 -17 -34 8 -8 196 121 197 135 0 8 -10 3 -26 -13 -38 -37
-138 -91 -129 -68 4 9 12 44 16 77 5 33 11 66 14 73 10 28 -7 8 -35 -40z m-91
-140 c-19 -38 -62 -78 -82 -78 -16 0 -7 12 34 50 30 27 55 49 57 50 1 0 -3
-10 -9 -22z m126 -45 c-29 -16 -121 -36 -109 -24 7 8 105 39 124 40 8 0 2 -7
-15 -16z"/>
<path d="M1045 702 c34 -7 38 -20 11 -37 -15 -10 -29 -15 -32 -12 -3 3 7 12
23 21 16 9 21 15 12 16 -8 0 -33 -13 -55 -29 -21 -15 -59 -36 -84 -45 -28 -10
-33 -14 -15 -10 17 3 47 14 69 25 48 25 56 19 19 -15 -22 -20 -25 -28 -15 -38
10 -10 20 -4 50 27 l37 40 -35 -33 c-20 -17 -39 -32 -43 -32 -17 0 -4 18 35
48 42 33 65 41 52 20 -4 -6 3 -4 17 5 13 9 32 17 42 17 11 0 15 5 11 11 -5 8
-1 8 14 0 11 -6 28 -8 36 -5 9 4 38 -8 67 -27 40 -25 64 -33 108 -35 l56 -3
-56 8 c-70 10 -187 77 -147 83 12 3 -26 4 -87 4 -60 0 -101 -2 -90 -4z m85
-16 c0 -2 -7 -7 -16 -10 -8 -3 -12 -2 -9 4 6 10 25 14 25 6z"/>
<path d="M980 690 c-18 -12 -2 -12 25 0 13 6 15 9 5 9 -8 0 -22 -4 -30 -9z"/>
<path d="M1305 675 c33 -14 83 -29 113 -34 46 -7 56 -5 75 11 16 14 17 18 5
14 -56 -17 -87 -16 -144 4 -86 32 -119 35 -49 5z"/>
<path d="M788 683 c12 -2 30 -2 40 0 9 3 -1 5 -23 4 -22 0 -30 -2 -17 -4z"/>
<path d="M915 665 c-36 -17 -119 -19 -146 -5 -29 16 -23 4 11 -20 31 -22 94
-45 85 -31 -2 5 -19 12 -37 16 -32 8 -31 8 22 15 30 4 69 14 85 23 36 20 22
21 -20 2z"/>
<path d="M1212 620 c54 -47 69 -53 75 -33 6 16 -75 78 -103 78 -21 1 -18 -5
28 -45z m43 -4 c17 -13 26 -28 22 -32 -4 -4 -27 11 -50 35 -43 44 -27 42 28
-3z"/>
</g>
</svg>
